<svg width="19" height="19" viewBox="0 0 19 19" fill="none" xmlns="http://www.w3.org/2000/svg">
<path d="M5.83331 10.8335C5.83331 10.8335 7.08331 12.5002 9.16665 12.5002C11.25 12.5002 12.5 10.8335 12.5 10.8335M11.6666 6.66683H11.675M5.83331 6.66683H7.49998M17.5 9.16683C17.5 13.7692 13.769 17.5002 9.16665 17.5002C4.56427 17.5002 0.833313 13.7692 0.833313 9.16683C0.833313 4.56446 4.56427 0.833496 9.16665 0.833496C13.769 0.833496 17.5 4.56446 17.5 9.16683ZM12.0833 6.66683C12.0833 6.89695 11.8968 7.0835 11.6666 7.0835C11.4365 7.0835 11.25 6.89695 11.25 6.66683C11.25 6.43671 11.4365 6.25016 11.6666 6.25016C11.8968 6.25016 12.0833 6.43671 12.0833 6.66683Z" stroke="#1E3460" stroke-width="1.66667" stroke-linecap="round" stroke-linejoin="round"/>
</svg>
