<svg width="19" height="15" viewBox="0 0 19 15" fill="none" xmlns="http://www.w3.org/2000/svg">
<path d="M7.49998 4.16683V3.3335M7.49998 7.91683V7.0835M7.49998 11.6668V10.8335M3.49998 0.833496H14.8333C15.7667 0.833496 16.2334 0.833496 16.59 1.01515C16.9036 1.17494 17.1585 1.42991 17.3183 1.74351C17.5 2.10003 17.5 2.56674 17.5 3.50016V4.5835C15.8891 4.5835 14.5833 5.88933 14.5833 7.50016C14.5833 9.11099 15.8891 10.4168 17.5 10.4168V11.5002C17.5 12.4336 17.5 12.9003 17.3183 13.2568C17.1585 13.5704 16.9036 13.8254 16.59 13.9852C16.2334 14.1668 15.7667 14.1668 14.8333 14.1668H3.49998C2.56656 14.1668 2.09985 14.1668 1.74333 13.9852C1.42973 13.8254 1.17476 13.5704 1.01497 13.2568C0.833313 12.9003 0.833313 12.4336 0.833313 11.5002V10.4168C2.44414 10.4168 3.74998 9.11099 3.74998 7.50016C3.74998 5.88933 2.44414 4.5835 0.833313 4.5835V3.50016C0.833313 2.56674 0.833313 2.10003 1.01497 1.74351C1.17476 1.42991 1.42973 1.17494 1.74333 1.01515C2.09985 0.833496 2.56656 0.833496 3.49998 0.833496Z" stroke="#1E3460" stroke-width="1.66667" stroke-linecap="round" stroke-linejoin="round"/>
</svg>
