<svg width="17" height="19" viewBox="0 0 17 19" fill="none" xmlns="http://www.w3.org/2000/svg">
<path d="M2.93337 1.36683L1.63337 3.10016C1.37589 3.44348 1.24714 3.61514 1.25013 3.75882C1.25273 3.88386 1.31136 4.00112 1.40983 4.07823C1.52299 4.16683 1.73756 4.16683 2.16671 4.16683H14.5C14.9292 4.16683 15.1438 4.16683 15.2569 4.07823C15.3554 4.00112 15.414 3.88386 15.4166 3.75882C15.4196 3.61514 15.2909 3.44348 15.0334 3.10016L13.7334 1.36683M2.93337 1.36683C3.08004 1.17127 3.15337 1.0735 3.24631 1.00298C3.32863 0.940516 3.42184 0.89391 3.5212 0.865534C3.63338 0.833496 3.7556 0.833496 4.00004 0.833496H12.6667C12.9112 0.833496 13.0334 0.833496 13.1456 0.865534C13.2449 0.89391 13.3381 0.940516 13.4204 1.00298C13.5134 1.0735 13.5867 1.17127 13.7334 1.36683M2.93337 1.36683L1.36671 3.45572C1.16882 3.71956 1.06988 3.85148 0.999623 3.99676C0.937278 4.12568 0.891808 4.26209 0.864335 4.40263C0.833374 4.56101 0.833374 4.72591 0.833374 5.05572L0.833374 14.8335C0.833374 15.7669 0.833374 16.2336 1.01503 16.5901C1.17482 16.9037 1.42979 17.1587 1.74339 17.3185C2.09991 17.5002 2.56662 17.5002 3.50004 17.5002L13.1667 17.5002C14.1001 17.5002 14.5668 17.5002 14.9234 17.3185C15.237 17.1587 15.4919 16.9037 15.6517 16.5901C15.8334 16.2336 15.8334 15.7669 15.8334 14.8335V5.05572C15.8334 4.72591 15.8334 4.56101 15.8024 4.40263C15.7749 4.26209 15.7295 4.12568 15.6671 3.99677C15.5969 3.85149 15.4979 3.71956 15.3 3.45572L13.7334 1.36683M11.6667 7.50016C11.6667 8.38422 11.3155 9.23206 10.6904 9.85718C10.0653 10.4823 9.21743 10.8335 8.33337 10.8335C7.44932 10.8335 6.60147 10.4823 5.97635 9.85718C5.35123 9.23206 5.00004 8.38422 5.00004 7.50016" stroke="#1E3460" stroke-width="1.66667" stroke-linecap="round" stroke-linejoin="round"/>
</svg>
