<svg width="19" height="19" viewBox="0 0 19 19" fill="none" xmlns="http://www.w3.org/2000/svg">
<path d="M6.66665 6.66683H6.67498M11.6666 11.6668H11.675M12.5 5.8335L5.83331 12.5002M14.0843 3.33225C14.2559 3.74727 14.5853 4.07716 15 4.24939L16.4543 4.85181C16.8694 5.02373 17.1991 5.35349 17.371 5.76854C17.543 6.1836 17.543 6.64995 17.371 7.065L16.7691 8.51833C16.5971 8.93357 16.5968 9.40039 16.7696 9.81543L17.3705 11.2683C17.4558 11.4739 17.4997 11.6942 17.4997 11.9168C17.4997 12.1393 17.4559 12.3597 17.3708 12.5653C17.2856 12.7709 17.1608 12.9577 17.0034 13.115C16.846 13.2724 16.6592 13.3971 16.4535 13.4822L15.0003 14.0842C14.5853 14.2558 14.2554 14.5852 14.0832 15L13.4808 16.4543C13.3089 16.8694 12.9791 17.1992 12.5641 17.3711C12.149 17.543 11.6827 17.543 11.2677 17.3711L9.81438 16.7691C9.39933 16.5976 8.93317 16.5979 8.51838 16.7701L7.06406 17.3716C6.64925 17.5431 6.18332 17.543 5.76862 17.3712C5.35392 17.1994 5.02436 16.8701 4.85232 16.4555L4.24975 15.0007C4.07815 14.5856 3.74877 14.2557 3.33402 14.0835L1.8797 13.4811C1.46484 13.3093 1.13519 12.9797 0.963215 12.5649C0.791237 12.1501 0.791003 11.6839 0.962566 11.2689L1.56453 9.81562C1.73602 9.40056 1.73567 8.93437 1.56356 8.51956L0.962457 7.06415C0.877232 6.85858 0.833349 6.63823 0.833313 6.41569C0.833277 6.19315 0.87709 5.97279 0.962249 5.76719C1.04741 5.56159 1.17224 5.37479 1.32962 5.21746C1.487 5.06012 1.67383 4.93534 1.87945 4.85025L3.33273 4.24826C3.74737 4.07681 4.07705 3.74783 4.2494 3.33354L4.8518 1.87917C5.02371 1.46412 5.35346 1.13436 5.7685 0.962437C6.18354 0.790516 6.64987 0.790516 7.06491 0.962437L8.51818 1.56443C8.93323 1.73592 9.3994 1.73557 9.81419 1.56345L11.2691 0.96337C11.6841 0.791546 12.1503 0.791581 12.5653 0.963468C12.9803 1.13536 13.31 1.46502 13.4819 1.87997L14.0845 3.33477L14.0843 3.33225ZM7.08331 6.66683C7.08331 6.89695 6.89676 7.0835 6.66665 7.0835C6.43653 7.0835 6.24998 6.89695 6.24998 6.66683C6.24998 6.43671 6.43653 6.25016 6.66665 6.25016C6.89676 6.25016 7.08331 6.43671 7.08331 6.66683ZM12.0833 11.6668C12.0833 11.8969 11.8968 12.0835 11.6666 12.0835C11.4365 12.0835 11.25 11.8969 11.25 11.6668C11.25 11.4367 11.4365 11.2502 11.6666 11.2502C11.8968 11.2502 12.0833 11.4367 12.0833 11.6668Z" stroke="#1E3460" stroke-width="1.66667" stroke-linecap="round" stroke-linejoin="round"/>
</svg>
