<svg width="12" height="14" viewBox="0 0 12 14" fill="none" xmlns="http://www.w3.org/2000/svg">
<path d="M5.66667 4.66667C5.66667 4.22464 5.84226 3.80072 6.15482 3.48816C6.46738 3.17559 6.89131 3 7.33333 3C8.06667 3 8.68667 3.47333 8.91333 4.12667C8.96667 4.3 9 4.48 9 4.66667C9 4.88554 8.95689 5.10226 8.87313 5.30447C8.78937 5.50668 8.66661 5.69041 8.51184 5.84518C8.35708 5.99994 8.17335 6.12271 7.97114 6.20647C7.76893 6.29022 7.5522 6.33333 7.33333 6.33333C6.60667 6.33333 6 5.87333 5.76 5.22667C5.7 5.05333 5.66667 4.86 5.66667 4.66667ZM1.33333 4.66667C1.33333 7.66667 4.72 11.7733 5.33333 12.54L4.66667 13.3333C4.66667 13.3333 0 8.16667 0 4.66667C0 2.55333 1.40667 0.766667 3.33333 0.193333C2.10667 1.29333 1.33333 2.88667 1.33333 4.66667ZM7.33333 0C9.90667 0 12 2.08667 12 4.66667C12 8.16667 7.33333 13.3333 7.33333 13.3333C7.33333 13.3333 2.66667 8.16667 2.66667 4.66667C2.66667 2.08667 4.76 0 7.33333 0ZM7.33333 1.33333C5.49333 1.33333 4 2.82667 4 4.66667C4 5.33333 4 6.66667 7.33333 11.14C10.6667 6.66667 10.6667 5.33333 10.6667 4.66667C10.6667 2.82667 9.17333 1.33333 7.33333 1.33333Z" fill="#1E3460"/>
</svg>
