<svg width="189" height="35" viewBox="0 0 189 35" fill="none" xmlns="http://www.w3.org/2000/svg">
<path fill-rule="evenodd" clip-rule="evenodd" d="M166.137 0.740817H177.138C180.794 0.740817 183.559 1.42117 185.449 2.78186C187.339 4.14255 188.276 6.15335 188.276 8.79914C188.276 11.2786 187.431 13.2743 185.756 14.8013C184.082 16.3283 181.716 17.2203 178.658 17.5076C179.672 17.9762 180.456 18.5961 181.009 19.3369C181.577 20.0778 182.023 21.1814 182.361 22.6328L184.988 34.2289H178.259L175.647 23.0864C175.386 21.9222 174.879 21.1209 174.096 20.6976C173.327 20.2592 171.929 20.0475 169.917 20.0475H168.672L165.569 34.2289H158.763L166.137 0.740817ZM171.776 5.50324L169.732 15.149H169.855C170.9 15.2095 171.653 15.2397 172.114 15.2397C175.079 15.2397 177.337 14.7559 178.874 13.7883C180.425 12.8207 181.209 11.4147 181.209 9.53995C181.209 8.23974 180.733 7.25702 179.765 6.54643C178.812 5.83585 177.429 5.48812 175.647 5.48812H171.776V5.50324ZM144.107 0.740817H152.541L158.548 34.2289H151.773L150.436 26.2916H135.319L130.51 34.2138H123.213L144.107 0.740817ZM147.471 5.80562L138.13 21.378H149.806L147.471 5.80562ZM92.5171 0.740817H103.102L106.006 26.6998L120.202 0.740817H131.125L123.689 34.2289H117.298L123.689 5.36717L107.496 34.2289H101.305L97.6638 5.41252L91.5185 34.2289H85.1735L92.5171 0.740817ZM61.4989 0.740817H68.4123L64.172 19.9266C64.003 20.5918 63.8955 21.2268 63.8187 21.8618C63.7419 22.4816 63.7112 23.1166 63.7112 23.7214C63.7112 25.6112 64.2642 27.1533 65.3857 28.3024C66.5073 29.4514 67.9667 30.0259 69.8103 30.0259C72.0841 30.0259 73.9123 29.2246 75.2643 27.6069C76.6316 25.9892 77.7377 23.2981 78.5827 19.5335L82.8537 0.725701H89.5367L85.1889 20.8488C84.1288 25.6868 82.3159 29.2549 79.7042 31.5529C77.1078 33.851 73.5897 35 69.1497 35C65.3243 35 62.3131 34.0324 60.1315 32.0821C57.9346 30.1469 56.8284 27.486 56.8284 24.1296C56.8284 23.3132 56.8745 22.4665 56.9821 21.5745C57.0896 20.6825 57.2432 19.7603 57.4583 18.8229L61.4989 0.740817ZM41.0658 0C45.6747 0 49.239 1.22462 51.7893 3.7041C54.3242 6.16847 55.5994 9.61555 55.5994 14.0454C55.5994 17.1749 55.0616 20.0929 53.9709 22.8143C52.8954 25.5356 51.3284 27.8942 49.3005 29.8898C47.6259 31.5227 45.6748 32.7624 43.4471 33.6242C41.2041 34.486 38.7767 34.9093 36.1342 34.9093C31.7864 34.9093 28.3297 33.5939 25.7641 30.9633C23.2138 28.3326 21.9387 24.7797 21.9387 20.3197C21.9387 17.5076 22.4763 14.8013 23.5364 12.1857C24.5964 9.57019 26.1174 7.25702 28.0839 5.27645C29.7585 3.56803 31.7096 2.2527 33.9065 1.36069C36.1342 0.45356 38.5155 0 41.0658 0ZM48.4555 13.8488C48.4555 11.0367 47.7795 8.84449 46.4122 7.27213C45.0602 5.69978 43.1705 4.91361 40.7739 4.91361C39.3297 4.91361 37.9163 5.26134 36.5644 5.98704C35.2124 6.69762 34.0141 7.71058 33.0001 9.02592C31.7557 10.5832 30.8032 12.3974 30.1272 14.4687C29.4512 16.54 29.0979 18.6566 29.0979 20.8035C29.0979 23.5702 29.7739 25.7624 31.1412 27.3499C32.4931 28.9374 34.3674 29.7235 36.7334 29.7235C38.3311 29.7235 39.7907 29.3456 41.1426 28.5745C42.4946 27.8035 43.7697 26.6242 44.9834 25.0216C46.0742 23.6004 46.9192 21.9071 47.5491 19.9114C48.1482 17.946 48.4555 15.9201 48.4555 13.8488ZM7.40504 0.740817H14.3185L8.08103 29.1037H22.4149L21.3088 34.2138H0L7.40504 0.740817Z" fill="#1E3460"/>
</svg>
