<svg width="17" height="14" viewBox="0 0 17 14" fill="none" xmlns="http://www.w3.org/2000/svg">
<path d="M11.3167 10.6667L8.33333 8.75L5.35 10.6667L6.25 7.23333L3.50833 5L7.05 4.78333L8.33333 1.5L9.61667 4.78333L13.1583 5L10.4167 7.23333M15 6.66667C15 6.22464 15.1756 5.80072 15.4882 5.48816C15.8007 5.17559 16.2246 5 16.6667 5V1.66667C16.6667 1.22464 16.4911 0.800716 16.1785 0.488155C15.8659 0.175595 15.442 0 15 0H1.66667C1.22464 0 0.800716 0.175595 0.488155 0.488155C0.175595 0.800716 0 1.22464 0 1.66667V5C0.442027 5 0.865951 5.17559 1.17851 5.48816C1.49107 5.80072 1.66667 6.22464 1.66667 6.66667C1.66667 7.10869 1.49107 7.53262 1.17851 7.84518C0.865951 8.15774 0.442027 8.33333 0 8.33333V11.6667C0 12.1087 0.175595 12.5326 0.488155 12.8452C0.800716 13.1577 1.22464 13.3333 1.66667 13.3333H15C15.442 13.3333 15.8659 13.1577 16.1785 12.8452C16.4911 12.5326 16.6667 12.1087 16.6667 11.6667V8.33333C16.2246 8.33333 15.8007 8.15774 15.4882 7.84518C15.1756 7.53262 15 7.10869 15 6.66667Z" fill="white"/>
</svg>
