<svg width="17" height="17" viewBox="0 0 17 17" fill="none" xmlns="http://www.w3.org/2000/svg">
<path d="M16.175 7.98333L8.675 0.483334C8.36251 0.1734 7.94012 -0.000350687 7.5 5.31427e-07H1.66667C1.22464 5.31427e-07 0.800716 0.175595 0.488156 0.488156C0.175595 0.800716 5.23275e-07 1.22464 5.23275e-07 1.66667V7.5C-0.000173743 7.71993 0.0431806 7.93771 0.127565 8.14081C0.211949 8.3439 0.335694 8.52829 0.491667 8.68333L7.99167 16.1833C8.30415 16.4933 8.72655 16.667 9.16667 16.6667C9.60798 16.6648 10.0305 16.488 10.3417 16.175L16.175 10.3417C16.488 10.0305 16.6648 9.60798 16.6667 9.16667C16.6668 8.94674 16.6235 8.72895 16.5391 8.52586C16.4547 8.32277 16.331 8.13838 16.175 7.98333ZM9.16667 15L1.66667 7.5V1.66667H7.5L15 9.16667M3.75 2.5C3.99723 2.5 4.2389 2.57331 4.44446 2.71066C4.65002 2.84802 4.81024 3.04324 4.90485 3.27165C4.99946 3.50005 5.02421 3.75139 4.97598 3.99386C4.92775 4.23634 4.8087 4.45907 4.63388 4.63388C4.45907 4.8087 4.23634 4.92775 3.99386 4.97598C3.75139 5.02421 3.50005 4.99946 3.27165 4.90485C3.04324 4.81024 2.84802 4.65002 2.71066 4.44446C2.57331 4.2389 2.5 3.99723 2.5 3.75C2.5 3.41848 2.6317 3.10054 2.86612 2.86612C3.10054 2.6317 3.41848 2.5 3.75 2.5Z" fill="#F8F8F8"/>
</svg>
