<svg width="20" height="20" viewBox="0 0 20 20" fill="none" xmlns="http://www.w3.org/2000/svg">
<path d="M16.1 5.40625V8.59688H13.2625V7.66875C13.2618 7.42033 13.1628 7.1823 12.9871 7.00664C12.8115 6.83098 12.5734 6.73198 12.325 6.73125H7.675C7.42658 6.73198 7.18855 6.83098 7.01289 7.00664C6.83723 7.1823 6.73823 7.42033 6.7375 7.66875V8.59688H3.9V5.40625C3.90121 4.99222 4.06622 4.5955 4.35898 4.30273C4.65175 4.00997 5.04847 3.84496 5.4625 3.84375H14.5375C14.9515 3.84496 15.3483 4.00997 15.641 4.30273C15.9338 4.5955 16.0988 4.99222 16.1 5.40625ZM18.75 11.45V12.9406C18.7493 13.189 18.6503 13.4271 18.4746 13.6027C18.299 13.7784 18.0609 13.8774 17.8125 13.8781H2.1875C1.93908 13.8774 1.70105 13.7784 1.52539 13.6027C1.34973 13.4271 1.25072 13.189 1.25 12.9406V11.45C1.25083 10.8593 1.48584 10.2931 1.90352 9.87539C2.32119 9.45772 2.88744 9.2227 3.47813 9.22187H16.5219C17.1126 9.2227 17.6788 9.45772 18.0965 9.87539C18.5142 10.2931 18.7492 10.8593 18.75 11.45Z" fill="white"/>
<path d="M12.6375 7.6687V8.59683H7.36251V7.6687C7.36276 7.5859 7.39576 7.50655 7.45431 7.448C7.51287 7.38945 7.59221 7.35645 7.67501 7.3562H12.325C12.4078 7.35645 12.4872 7.38945 12.5457 7.448C12.6043 7.50655 12.6373 7.5859 12.6375 7.6687ZM4.21876 14.8156V15.2625C4.21807 15.4993 4.12368 15.7262 3.95622 15.8937C3.78876 16.0611 3.56184 16.1555 3.32501 16.1562H3.23751C2.99986 16.1555 2.77214 16.0608 2.60409 15.8927C2.43605 15.7247 2.34133 15.497 2.34064 15.2593V14.8156C2.34064 14.7327 2.37356 14.6532 2.43217 14.5946C2.49077 14.536 2.57026 14.5031 2.65314 14.5031H3.90626C3.98914 14.5031 4.06863 14.536 4.12723 14.5946C4.18584 14.6532 4.21876 14.7327 4.21876 14.8156ZM17.6594 14.8156V15.2625C17.6587 15.4993 17.5643 15.7262 17.3968 15.8937C17.2294 16.0611 17.0025 16.1555 16.7656 16.1562H16.675C16.4382 16.1555 16.2113 16.0611 16.0438 15.8937C15.8763 15.7262 15.782 15.4993 15.7813 15.2625V14.8156C15.7813 14.7327 15.8142 14.6532 15.8728 14.5946C15.9314 14.536 16.0109 14.5031 16.0938 14.5031H17.3469C17.4298 14.5031 17.5093 14.536 17.5679 14.5946C17.6265 14.6532 17.6594 14.7327 17.6594 14.8156Z" fill="white"/>
</svg>
