<svg width="16" height="16" viewBox="0 0 16 16" fill="none" xmlns="http://www.w3.org/2000/svg">
<path d="M2.34398 13.656C1.5799 12.918 0.970439 12.0352 0.551167 11.0592C0.131895 10.0832 -0.0887951 9.03342 -0.0980256 7.97119C-0.107256 6.90895 0.0951575 5.85552 0.497405 4.87235C0.899652 3.88918 1.49368 2.99596 2.24482 2.24482C2.99596 1.49368 3.88918 0.899652 4.87235 0.497405C5.85552 0.0951575 6.90895 -0.107256 7.97119 -0.0980256C9.03342 -0.0887951 10.0832 0.131895 11.0592 0.551167C12.0352 0.970439 12.918 1.5799 13.656 2.34398C15.1132 3.8528 15.9196 5.87361 15.9014 7.97119C15.8831 10.0688 15.0418 12.0753 13.5585 13.5585C12.0753 15.0418 10.0688 15.8831 7.97119 15.9014C5.87361 15.9196 3.8528 15.1132 2.34398 13.656ZM12.528 12.528C13.7289 11.3271 14.4035 9.69831 14.4035 7.99998C14.4035 6.30165 13.7289 4.67288 12.528 3.47198C11.3271 2.27108 9.69831 1.59642 7.99998 1.59642C6.30165 1.59642 4.67288 2.27108 3.47198 3.47198C2.27108 4.67288 1.59642 6.30165 1.59642 7.99998C1.59642 9.69831 2.27108 11.3271 3.47198 12.528C4.67288 13.7289 6.30165 14.4035 7.99998 14.4035C9.69831 14.4035 11.3271 13.7289 12.528 12.528ZM7.19998 3.99998H8.79998V8.79998H7.19998V3.99998ZM7.19998 10.4H8.79998V12H7.19998V10.4Z" fill="#1E3460"/>
</svg>
