<svg width="25" height="18" viewBox="0 0 25 18" fill="none" xmlns="http://www.w3.org/2000/svg">
<path d="M6.69141 2.5H8.75V6.25H4.34766L5.53516 3.28516C5.72266 2.8125 6.17969 2.5 6.69141 2.5ZM10.625 6.25V2.5H13.7969C14.1758 2.5 14.5352 2.67188 14.7734 2.96875L17.3984 6.25H10.625ZM20.6328 6.28906L16.7266 1.40625C16.0156 0.515625 14.9375 0 13.7969 0H6.69141C5.15625 0 3.77734 0.933594 3.21094 2.35547L1.58594 6.42188C0.65625 6.78906 0 7.69141 0 8.75V13.125C0 13.8164 0.558594 14.375 1.25 14.375H2.55078C2.84766 16.1484 4.39062 17.5 6.25 17.5C8.10938 17.5 9.65234 16.1484 9.94922 14.375H15.0508C15.3477 16.1484 16.8906 17.5 18.75 17.5C20.6094 17.5 22.1523 16.1484 22.4492 14.375H23.75C24.4414 14.375 25 13.8164 25 13.125V11.25C25 8.70312 23.0938 6.60156 20.6328 6.28906ZM16.9805 13.125C17.06 12.8897 17.1856 12.6725 17.3498 12.4861C17.514 12.2998 17.7136 12.1479 17.937 12.0393C18.1604 11.9307 18.4032 11.8676 18.6512 11.8536C18.8992 11.8396 19.1475 11.8751 19.3817 11.9579C19.6159 12.0407 19.8313 12.1692 20.0154 12.336C20.1995 12.5027 20.3487 12.7044 20.4542 12.9293C20.5597 13.1542 20.6194 13.3978 20.63 13.646C20.6405 13.8942 20.6017 14.142 20.5156 14.375C20.4361 14.6103 20.3105 14.8275 20.1463 15.0139C19.9821 15.2002 19.7825 15.3521 19.5591 15.4607C19.3357 15.5693 19.0929 15.6324 18.8449 15.6464C18.5969 15.6604 18.3486 15.6249 18.1144 15.5421C17.8802 15.4593 17.6648 15.3308 17.4807 15.164C17.2966 14.9973 17.1474 14.7956 17.0419 14.5707C16.9364 14.3458 16.8767 14.1022 16.8661 13.854C16.8556 13.6058 16.8944 13.358 16.9805 13.125ZM6.25 11.875C6.74728 11.875 7.22419 12.0725 7.57583 12.4242C7.92746 12.7758 8.125 13.2527 8.125 13.75C8.125 14.2473 7.92746 14.7242 7.57583 15.0758C7.22419 15.4275 6.74728 15.625 6.25 15.625C5.75272 15.625 5.27581 15.4275 4.92417 15.0758C4.57254 14.7242 4.375 14.2473 4.375 13.75C4.375 13.2527 4.57254 12.7758 4.92417 12.4242C5.27581 12.0725 5.75272 11.875 6.25 11.875Z" fill="white"/>
</svg>
