<svg width="19" height="14" viewBox="0 0 19 14" fill="none" xmlns="http://www.w3.org/2000/svg">
<path d="M18.5992 4.59297L15.0414 0.447656C14.9241 0.307488 14.7774 0.194758 14.6118 0.117413C14.4462 0.040067 14.2656 -1.20087e-05 14.0828 2.69902e-09H1.25C0.918479 2.69902e-09 0.600537 0.131696 0.366116 0.366116C0.131696 0.600537 0 0.918479 0 1.25V10C0 10.3315 0.131696 10.6495 0.366116 10.8839C0.600537 11.1183 0.918479 11.25 1.25 11.25H2.57812C2.71581 11.7878 3.02856 12.2644 3.46707 12.6048C3.90557 12.9452 4.44489 13.1299 5 13.1299C5.55511 13.1299 6.09443 12.9452 6.53293 12.6048C6.97144 12.2644 7.28419 11.7878 7.42188 11.25H11.3281C11.4658 11.7878 11.7786 12.2644 12.2171 12.6048C12.6556 12.9452 13.1949 13.1299 13.75 13.1299C14.3051 13.1299 14.8444 12.9452 15.2829 12.6048C15.7214 12.2644 16.0342 11.7878 16.1719 11.25H17.5C17.8315 11.25 18.1495 11.1183 18.3839 10.8839C18.6183 10.6495 18.75 10.3315 18.75 10V5C18.75 4.85067 18.6965 4.70628 18.5992 4.59297ZM1.25 4.375V1.25H5.625V4.375H1.25ZM5 11.875C4.75277 11.875 4.5111 11.8017 4.30554 11.6643C4.09998 11.527 3.93976 11.3318 3.84515 11.1034C3.75054 10.8749 3.72579 10.6236 3.77402 10.3811C3.82225 10.1387 3.9413 9.91593 4.11612 9.74112C4.29093 9.5663 4.51366 9.44725 4.75614 9.39902C4.99861 9.35079 5.24995 9.37554 5.47835 9.47015C5.70676 9.56476 5.90199 9.72498 6.03934 9.93054C6.17669 10.1361 6.25 10.3778 6.25 10.625C6.25 10.9565 6.1183 11.2745 5.88388 11.5089C5.64946 11.7433 5.33152 11.875 5 11.875ZM11.25 4.375H6.875V1.25H11.25V4.375ZM13.75 11.875C13.5028 11.875 13.2611 11.8017 13.0555 11.6643C12.85 11.527 12.6898 11.3318 12.5951 11.1034C12.5005 10.8749 12.4758 10.6236 12.524 10.3811C12.5722 10.1387 12.6913 9.91593 12.8661 9.74112C13.0409 9.5663 13.2637 9.44725 13.5061 9.39902C13.7486 9.35079 13.9999 9.37554 14.2284 9.47015C14.4568 9.56476 14.652 9.72498 14.7893 9.93054C14.9267 10.1361 15 10.3778 15 10.625C15 10.9565 14.8683 11.2745 14.6339 11.5089C14.3995 11.7433 14.0815 11.875 13.75 11.875ZM12.5 4.375V1.25H14.0828L16.7648 4.375H12.5Z" fill="white"/>
</svg>
