<svg width="14" height="14" viewBox="0 0 14 14" fill="none" xmlns="http://www.w3.org/2000/svg">
<path d="M6.51336 12.6499H1.98336C1.62974 12.6499 1.2906 12.5094 1.04055 12.2594C0.7905 12.0093 0.650024 11.6702 0.650024 11.3166V3.31657C0.650024 2.96295 0.7905 2.62381 1.04055 2.37376C1.2906 2.12371 1.62974 1.98324 1.98336 1.98324H9.98336C10.337 1.98324 10.6761 2.12371 10.9262 2.37376C11.1762 2.62381 11.3167 2.96295 11.3167 3.31657V5.98324L0.650024 5.98324M8.65002 0.649902V3.31657M3.31669 0.649902V3.31657M10.65 9.64724V10.6499L11.3167 11.3166M7.98336 10.6499C7.98336 11.3571 8.26431 12.0354 8.76441 12.5355C9.2645 13.0356 9.94278 13.3166 10.65 13.3166C11.3573 13.3166 12.0355 13.0356 12.5356 12.5355C13.0357 12.0354 13.3167 11.3571 13.3167 10.6499C13.3167 9.94266 13.0357 9.26438 12.5356 8.76428C12.0355 8.26419 11.3573 7.98324 10.65 7.98324C9.94278 7.98324 9.2645 8.26419 8.76441 8.76428C8.26431 9.26438 7.98336 9.94266 7.98336 10.6499Z" stroke="#1E3460" stroke-width="1.3" stroke-linecap="round" stroke-linejoin="round"/>
</svg>
