<svg width="44" height="44" viewBox="0 0 44 44" fill="none" xmlns="http://www.w3.org/2000/svg">
<rect x="0.5" y="0.5" width="43" height="43" rx="11.5" fill="#6B7AA4" fill-opacity="0.47"/>
<rect x="0.5" y="0.5" width="43" height="43" rx="11.5" stroke="url(#paint0_linear_762_983)"/>
<g clip-path="url(#clip0_762_983)">
<path d="M21.9998 12C21.3282 12 20.7855 12.5586 20.7855 13.25V14C18.0154 14.5781 15.9284 17.1016 15.9284 20.125V21.1172C15.9284 22.8906 15.3402 24.6133 14.2663 25.9961L13.7009 26.7266C13.4808 27.0078 13.4391 27.3945 13.5909 27.7188C13.7427 28.043 14.0614 28.25 14.4105 28.25H29.5891C29.9382 28.25 30.257 28.043 30.4088 27.7188C30.5605 27.3945 30.5188 27.0078 30.2987 26.7266L29.7333 26C28.6594 24.6133 28.0713 22.8906 28.0713 21.1172V20.125C28.0713 17.1016 25.9842 14.5781 23.2141 14V13.25C23.2141 12.5586 22.6715 12 21.9998 12ZM21.9998 15.75C24.3487 15.75 26.2498 17.707 26.2498 20.125V21.1172C26.2498 22.9883 26.7773 24.8125 27.7563 26.375H16.2433C17.2224 24.8125 17.7498 22.9883 17.7498 21.1172V20.125C17.7498 17.707 19.6509 15.75 21.9998 15.75ZM24.4284 29.5H19.5713C19.5713 30.1641 19.8255 30.8008 20.2808 31.2695C20.7362 31.7383 21.3547 32 21.9998 32C22.6449 32 23.2634 31.7383 23.7188 31.2695C24.1742 30.8008 24.4284 30.1641 24.4284 29.5Z" fill="white"/>
</g>
<defs>
<linearGradient id="paint0_linear_762_983" x1="22" y1="0" x2="22" y2="44" gradientUnits="userSpaceOnUse">
<stop stop-color="white" stop-opacity="0.12"/>
<stop offset="1" stop-color="white" stop-opacity="0"/>
</linearGradient>
<clipPath id="clip0_762_983">
<rect width="17" height="20" fill="white" transform="translate(13.5 12)"/>
</clipPath>
</defs>
</svg>
