<svg width="44" height="44" viewBox="0 0 44 44" fill="none" xmlns="http://www.w3.org/2000/svg">
<rect x="0.5" y="0.5" width="43" height="43" rx="11.5" fill="#6B7AA4" fill-opacity="0.47"/>
<rect x="0.5" y="0.5" width="43" height="43" rx="11.5" stroke="url(#paint0_linear_762_986)"/>
<g clip-path="url(#clip0_762_986)">
<path d="M22.0002 12C21.3285 12 20.7859 12.5586 20.7859 13.25V14C18.0158 14.5781 15.9287 17.1016 15.9287 20.125V20.8594C15.9287 22.6953 15.2723 24.4688 14.0883 25.8438L13.8075 26.168C13.4888 26.5352 13.4129 27.0625 13.6064 27.5117C13.8 27.9609 14.2363 28.25 14.7145 28.25H29.2859C29.764 28.25 30.1966 27.9609 30.3939 27.5117C30.5912 27.0625 30.5116 26.5352 30.1928 26.168L29.912 25.8438C28.7281 24.4688 28.0716 22.6992 28.0716 20.8594V20.125C28.0716 17.1016 25.9845 14.5781 23.2145 14V13.25C23.2145 12.5586 22.6718 12 22.0002 12ZM23.7191 31.2695C24.1745 30.8008 24.4287 30.1641 24.4287 29.5H19.5716C19.5716 30.1641 19.8258 30.8008 20.2812 31.2695C20.7366 31.7383 21.3551 32 22.0002 32C22.6453 32 23.2638 31.7383 23.7191 31.2695Z" fill="white"/>
</g>
<rect x="30" y="6" width="8" height="8" rx="4" fill="#FC5B4F"/>
<defs>
<linearGradient id="paint0_linear_762_986" x1="22" y1="0" x2="22" y2="44" gradientUnits="userSpaceOnUse">
<stop stop-color="white" stop-opacity="0.12"/>
<stop offset="1" stop-color="white" stop-opacity="0"/>
</linearGradient>
<clipPath id="clip0_762_986">
<rect width="17" height="20" fill="white" transform="translate(13.5 12)"/>
</clipPath>
</defs>
</svg>
