<svg width="16" height="16" viewBox="0 0 16 16" fill="none" xmlns="http://www.w3.org/2000/svg">
<path fill-rule="evenodd" clip-rule="evenodd" d="M9.33867 12.6685L9.34267 11.3332C9.34267 11.1559 9.41309 10.9859 9.53842 10.8606C9.66376 10.7353 9.83375 10.6648 10.011 10.6648C10.1883 10.6648 10.3583 10.7353 10.4836 10.8606C10.6089 10.9859 10.6793 11.1559 10.6793 11.3332V12.6512C10.6793 12.9718 10.6793 13.1325 10.782 13.2312C10.8853 13.3292 11.042 13.3225 11.3573 13.3092C12.5993 13.2565 13.3627 13.0892 13.9 12.5518C14.44 12.0145 14.6073 11.2512 14.66 10.0072C14.67 9.7605 14.6753 9.6365 14.6293 9.5545C14.5827 9.4725 14.3993 9.36984 14.0313 9.16384C13.8241 9.04827 13.6514 8.87945 13.5312 8.67482C13.411 8.47018 13.3476 8.23716 13.3476 7.99984C13.3476 7.76251 13.411 7.52949 13.5312 7.32486C13.6514 7.12022 13.8241 6.9514 14.0313 6.83584C14.3993 6.6305 14.5833 6.52717 14.6293 6.44517C14.6753 6.36317 14.67 6.23984 14.6593 5.9925C14.6073 4.7485 14.4393 3.98584 13.9 3.44784C13.3153 2.86384 12.4633 2.7165 11.0187 2.67917C10.9744 2.67801 10.9304 2.68573 10.8892 2.70186C10.848 2.71799 10.8105 2.74221 10.7788 2.7731C10.7471 2.80398 10.7219 2.8409 10.7047 2.88167C10.6875 2.92245 10.6787 2.96625 10.6787 3.0105V4.6665C10.6787 4.84376 10.6083 5.01375 10.4829 5.13909C10.3576 5.26442 10.1876 5.33484 10.0103 5.33484C9.83309 5.33484 9.66309 5.26442 9.53776 5.13909C9.41242 5.01375 9.34201 4.84376 9.34201 4.6665L9.33734 2.99917C9.33716 2.91088 9.30197 2.82627 9.23947 2.7639C9.17698 2.70153 9.0923 2.6665 9.00401 2.6665H6.66267C4.14267 2.6665 2.88267 2.6665 2.09934 3.44784C1.55934 3.98517 1.39201 4.7485 1.33934 5.9925C1.32934 6.23917 1.32401 6.36317 1.37001 6.44517C1.41667 6.52717 1.60001 6.6305 1.96801 6.83584C2.1753 6.9514 2.34796 7.12022 2.46817 7.32486C2.58837 7.52949 2.65175 7.76251 2.65175 7.99984C2.65175 8.23716 2.58837 8.47018 2.46817 8.67482C2.34796 8.87945 2.1753 9.04827 1.96801 9.16384C1.60001 9.36984 1.41601 9.4725 1.37001 9.5545C1.32401 9.6365 1.32934 9.75984 1.34001 10.0065C1.39201 11.2512 1.56001 12.0145 2.09934 12.5518C2.88267 13.3332 4.14267 13.3332 6.66334 13.3332H8.67001C8.98467 13.3332 9.14134 13.3332 9.23934 13.2358C9.33734 13.1385 9.33801 12.9825 9.33867 12.6685ZM10.6787 8.6665V7.33317C10.6787 7.15592 10.6083 6.98592 10.4829 6.86059C10.3576 6.73525 10.1876 6.66484 10.0103 6.66484C9.83309 6.66484 9.66309 6.73525 9.53776 6.86059C9.41242 6.98592 9.34201 7.15592 9.34201 7.33317V8.6665C9.34201 8.84385 9.41246 9.01392 9.53786 9.13932C9.66325 9.26472 9.83333 9.33517 10.0107 9.33517C10.188 9.33517 10.3581 9.26472 10.4835 9.13932C10.6089 9.01392 10.6787 8.84385 10.6787 8.6665Z" fill="#414651"/>
</svg>
